<?xml version="1.0" standalone="no"?>
<!DOCTYPE svg PUBLIC "-//W3C//DTD SVG 20010904//EN"
 "http://www.w3.org/TR/2001/REC-SVG-20010904/DTD/svg10.dtd">
<svg version="1.0" xmlns="http://www.w3.org/2000/svg"
 width="2026.000000pt" height="2026.000000pt" viewBox="0 0 2026.000000 2026.000000"
 preserveAspectRatio="xMidYMid meet">
<metadata>
Created by potrace 1.14, written by Peter Selinger 2001-2017
</metadata>
<g transform="translate(0.000000,2026.000000) scale(0.100000,-0.100000)"
fill="#000000" stroke="none">
<path d="M8860 16159 c-107 -20 -207 -75 -291 -161 -53 -54 -51 -51 -251 -468
-38 -80 -115 -239 -171 -355 -124 -257 -746 -1501 -895 -1790 -143 -278 -286
-553 -332 -640 -20 -38 -70 -133 -110 -210 -40 -77 -76 -144 -80 -150 -4 -5
-42 -77 -85 -160 -43 -82 -87 -166 -98 -185 -11 -19 -38 -69 -60 -110 -37 -70
-68 -128 -137 -255 -15 -27 -44 -81 -65 -120 -47 -86 -92 -167 -122 -220 -12
-22 -27 -49 -32 -60 -5 -11 -32 -60 -60 -109 -28 -49 -51 -90 -51 -92 0 -2
-15 -29 -33 -61 -19 -32 -59 -103 -89 -158 -188 -335 -619 -1083 -709 -1230
-10 -16 -27 -45 -36 -63 -20 -39 -6 -40 -193 17 -113 35 -311 91 -378 106 -9
2 -64 16 -122 30 -58 14 -114 28 -125 30 -11 3 -99 22 -195 44 -178 40 -352
75 -425 86 -41 6 -140 22 -185 29 -14 3 -47 7 -75 10 -27 4 -68 9 -90 11 -92
12 -126 15 -235 21 -200 13 -554 7 -636 -10 -12 -2 -45 -7 -75 -11 -30 -4 -76
-11 -104 -17 -27 -5 -61 -11 -75 -14 -284 -53 -653 -217 -895 -399 -524 -392
-946 -1105 -1174 -1985 -28 -107 -73 -319 -86 -400 -3 -19 -7 -46 -10 -60 -5
-29 -11 -66 -21 -135 -3 -27 -8 -58 -10 -67 -1 -9 -6 -48 -9 -85 -4 -37 -8
-78 -10 -91 -25 -153 -25 -746 -1 -922 3 -19 8 -60 11 -90 4 -30 9 -64 11 -75
2 -11 5 -36 8 -55 13 -106 63 -310 112 -459 62 -189 200 -443 301 -557 16 -17
42 -46 58 -65 39 -44 157 -144 209 -176 90 -57 242 -125 310 -139 10 -2 33 -8
50 -13 76 -24 336 -33 456 -16 30 4 64 9 75 11 78 11 349 96 370 115 5 5 15 9
23 9 8 0 62 24 121 54 147 74 175 90 179 99 2 4 8 7 13 7 23 0 401 256 465
315 6 5 29 24 50 40 342 266 898 810 1265 1240 19 22 43 49 54 61 11 12 40 45
64 74 25 29 50 58 56 64 34 36 366 442 504 616 90 113 170 214 179 225 223
276 1181 1599 1291 1783 7 12 97 -22 316 -123 94 -43 476 -234 490 -245 6 -4
48 -27 95 -51 47 -23 101 -53 120 -64 19 -12 60 -35 90 -52 119 -65 156 -87
182 -104 14 -11 28 -19 31 -19 5 0 292 -173 357 -214 19 -13 73 -48 120 -77
47 -30 178 -115 292 -189 114 -74 215 -139 225 -145 9 -5 37 -24 63 -41 56
-37 79 -51 65 -37 -21 20 -688 516 -845 628 -451 321 -1012 669 -1391 864
l-86 44 251 376 c138 207 292 439 342 516 50 77 129 199 176 270 46 72 99 154
118 184 19 30 62 96 95 147 85 132 334 527 440 699 21 33 48 76 60 95 13 19
53 85 90 145 37 61 87 140 111 177 24 37 44 70 44 72 0 2 34 60 76 128 42 67
102 166 134 218 132 218 444 738 462 769 11 19 52 89 92 155 40 67 89 150 110
186 20 36 42 74 49 85 7 11 27 43 45 72 17 30 32 55 32 58 0 3 19 35 41 72 23
37 83 139 134 228 50 88 143 248 204 355 62 107 127 219 143 249 17 29 43 76
59 103 16 27 29 51 29 53 0 2 19 36 43 77 41 69 157 273 217 383 37 67 67 122
96 170 69 119 85 262 50 460 -17 92 -80 212 -145 273 -219 206 -531 349 -822
377 -35 4 -71 9 -79 12 -27 9 -174 10 -220 2z m-5475 -6644 c72 -3 141 -8 155
-10 14 -2 59 -7 100 -10 41 -3 84 -7 95 -9 11 -2 47 -7 80 -10 33 -4 71 -9 85
-11 14 -2 45 -7 70 -10 68 -9 91 -13 140 -21 25 -4 52 -8 60 -10 27 -4 94 -15
120 -19 14 -3 43 -8 65 -11 32 -5 279 -50 385 -70 57 -11 222 -52 226 -57 6
-5 -113 -206 -188 -320 -21 -32 -38 -61 -38 -63 0 -3 -24 -42 -53 -87 -47 -73
-135 -212 -207 -327 -78 -126 -256 -398 -272 -416 -10 -11 -18 -23 -18 -27 0
-14 -390 -582 -588 -857 -107 -148 -362 -491 -372 -500 -3 -3 -59 -72 -124
-155 -116 -145 -379 -460 -402 -480 -6 -5 -37 -39 -69 -75 -401 -450 -841
-803 -1132 -910 -181 -65 -277 -55 -374 40 -121 118 -256 439 -303 720 -2 14
-7 41 -10 60 -14 81 -16 98 -22 160 -3 36 -7 71 -10 78 -6 20 -18 271 -18 397
0 119 12 395 19 435 2 14 6 54 9 90 4 36 8 76 10 90 3 14 7 43 10 65 4 22 8
51 11 65 3 14 7 41 9 60 2 19 12 71 21 115 9 44 18 87 20 95 16 81 76 296 119
425 205 614 530 1069 931 1300 140 81 276 137 440 183 114 32 126 35 235 52
157 26 186 29 295 36 55 3 101 7 102 7 3 4 267 -2 388 -8z"/>
<path d="M15388 14505 c-2 -2 -60 -6 -130 -9 -70 -4 -138 -9 -150 -11 -13 -2
-52 -6 -88 -10 -62 -6 -189 -22 -220 -29 -8 -1 -37 -6 -65 -10 -171 -27 -546
-126 -756 -200 -245 -86 -528 -211 -709 -313 -19 -11 -61 -34 -94 -52 -404
-225 -891 -618 -1190 -961 -41 -47 -84 -96 -96 -110 -12 -14 -39 -45 -59 -70
-20 -25 -38 -47 -41 -50 -3 -3 -17 -21 -30 -40 -13 -19 -27 -37 -31 -40 -17
-13 -199 -279 -275 -400 -96 -155 -264 -472 -264 -499 0 -6 16 -9 38 -7 35 4
169 11 382 21 52 2 138 7 190 10 146 8 296 16 395 20 50 2 146 7 215 11 69 4
130 7 137 7 7 0 15 6 17 14 8 21 155 243 188 283 15 19 58 73 95 120 93 118
128 156 278 305 332 331 651 551 1105 763 225 105 643 238 840 267 24 4 47 8
50 10 3 1 25 6 50 9 25 3 56 8 69 11 164 32 631 49 836 31 131 -12 274 -29
340 -41 215 -39 207 -37 351 -74 237 -60 487 -153 729 -272 194 -95 253 -128
418 -235 485 -317 880 -719 1187 -1207 81 -129 118 -196 191 -347 34 -69 67
-137 75 -151 8 -15 33 -78 58 -140 24 -63 47 -123 51 -134 5 -11 9 -22 10 -25
1 -3 16 -50 34 -105 64 -195 135 -508 156 -685 3 -30 8 -66 10 -80 2 -14 7
-63 10 -110 4 -47 9 -101 11 -120 5 -52 4 -375 -1 -450 -13 -180 -29 -326 -41
-390 -2 -14 -7 -41 -10 -60 -3 -19 -7 -46 -9 -60 -37 -225 -167 -652 -261
-858 -13 -29 -24 -55 -24 -57 0 -18 -157 -321 -217 -420 -7 -11 -16 -27 -20
-35 -4 -8 -43 -69 -87 -135 -404 -610 -945 -1091 -1586 -1410 -184 -92 -204
-101 -380 -170 -183 -71 -424 -144 -605 -183 -132 -29 -160 -34 -252 -47 -21
-3 -49 -8 -63 -10 -35 -7 -86 -13 -150 -19 -30 -3 -86 -8 -125 -12 -148 -15
-638 -8 -735 10 -14 3 -50 7 -80 10 -64 6 -129 14 -150 19 -8 2 -37 8 -65 12
-27 5 -52 10 -55 10 -3 1 -27 5 -55 9 -193 31 -665 179 -863 272 -41 19 -76
34 -78 34 -7 0 -195 94 -254 127 -264 149 -346 201 -553 355 -99 74 -110 75
-21 2 38 -31 79 -64 92 -75 98 -84 422 -309 443 -309 5 0 9 -4 9 -10 0 -5 4
-10 10 -10 5 0 33 -15 62 -34 206 -131 616 -313 918 -408 119 -37 139 -42 185
-52 11 -2 65 -15 120 -29 127 -32 266 -58 420 -77 44 -6 94 -12 110 -14 202
-28 726 -28 920 -1 17 2 57 7 90 10 50 5 126 17 240 39 11 2 40 7 65 11 153
24 561 142 750 217 305 121 590 269 848 440 93 61 338 240 352 257 3 3 37 33
75 66 296 253 590 582 805 900 244 362 493 889 586 1240 2 6 14 51 28 100 21
75 53 206 72 300 16 78 24 124 28 150 11 69 17 101 21 125 4 22 10 75 21 190
24 236 24 716 0 892 -3 18 -10 76 -16 128 -11 93 -36 251 -45 280 -2 8 -6 33
-10 55 -3 22 -13 67 -21 100 -9 33 -17 67 -19 75 -2 8 -10 42 -19 75 -9 33
-19 70 -22 82 -2 12 -9 35 -15 50 -6 16 -11 30 -11 33 -2 16 -86 270 -98 295
-5 11 -23 56 -40 100 -64 165 -199 442 -291 598 -32 54 -59 101 -59 103 0 3
-5 10 -10 17 -6 7 -51 72 -100 144 -49 73 -94 138 -100 145 -6 7 -36 47 -67
88 -293 387 -674 742 -1113 1037 -323 216 -744 421 -1139 553 -209 69 -596
162 -776 185 -27 3 -66 8 -85 11 -88 12 -108 14 -160 19 -30 2 -82 7 -115 11
-57 6 -512 13 -517 9z"/>
<path d="M9415 11606 c-30 -40 -61 -123 -68 -184 -6 -56 7 -121 37 -183 l24
-51 -56 8 c-88 13 -277 8 -382 -11 -373 -65 -702 -286 -957 -643 -63 -88 -147
-246 -178 -337 -9 -27 -20 -57 -23 -65 -3 -8 -6 -19 -7 -25 -2 -5 -10 -37 -19
-71 -33 -125 -44 -245 -41 -419 3 -178 5 -191 35 -321 51 -219 154 -401 318
-561 165 -162 337 -252 581 -305 104 -23 368 -31 486 -15 33 4 71 10 85 11
129 17 373 110 514 195 318 190 630 536 775 856 10 22 27 60 39 85 43 95 89
252 116 394 23 118 31 208 31 358 0 76 1 138 2 138 2 0 42 -12 90 -26 105 -30
94 -28 213 -53 142 -29 162 -32 330 -36 168 -5 314 13 435 54 75 26 76 26 70
-1 -2 -13 -13 -61 -24 -108 -30 -128 -61 -271 -67 -305 -2 -16 -7 -37 -9 -45
-3 -8 -7 -33 -10 -55 -4 -22 -10 -56 -15 -75 -5 -19 -11 -53 -14 -75 -4 -22
-8 -51 -11 -65 -7 -36 -13 -76 -21 -129 -4 -25 -8 -54 -10 -65 -12 -68 -19
-183 -19 -321 1 -173 15 -252 71 -373 154 -338 538 -464 891 -293 149 71 291
179 463 351 294 293 550 652 786 1105 106 204 95 193 87 90 -10 -121 -10 -613
0 -700 33 -302 113 -511 243 -638 48 -47 142 -100 209 -118 54 -14 214 -18
283 -7 435 72 899 489 1396 1253 32 49 56 81 53 70 -6 -20 -55 -268 -64 -315
-2 -14 -6 -32 -8 -40 -2 -8 -7 -31 -10 -50 -3 -19 -8 -42 -10 -50 -2 -8 -7
-31 -10 -50 -3 -19 -11 -55 -16 -80 -12 -52 -62 -324 -78 -420 -42 -259 -30
-362 51 -424 82 -62 231 -71 368 -21 128 47 126 45 127 112 1 70 41 225 88
338 63 153 149 335 195 415 15 25 27 47 27 50 0 6 38 77 53 100 5 8 35 60 66
115 195 344 492 757 704 979 220 230 402 338 560 332 103 -4 187 -56 245 -155
17 -28 33 -51 36 -51 14 0 201 164 265 234 123 133 164 241 130 344 -22 66
-87 131 -171 173 -68 33 -73 34 -190 33 -96 0 -135 -5 -194 -23 -213 -66 -407
-197 -652 -441 -160 -159 -259 -272 -404 -465 -162 -215 -403 -593 -530 -830
-26 -49 -51 -94 -55 -100 -4 -5 -29 -52 -55 -103 -27 -50 -49 -91 -51 -90 -1
2 13 79 31 171 19 92 36 183 39 201 3 19 23 123 45 232 22 110 42 210 45 224
2 14 11 57 20 95 8 39 17 82 19 95 3 14 11 54 17 90 7 36 14 74 16 85 1 11 10
58 18 105 33 188 36 280 11 355 -32 96 -88 128 -212 121 -43 -2 -89 -7 -103
-10 -14 -3 -36 -8 -50 -10 -62 -11 -243 -61 -263 -73 -5 -3 -2 -12 6 -21 53
-60 77 -158 74 -296 -3 -109 -4 -112 -41 -176 -21 -36 -50 -85 -64 -110 -83
-149 -322 -519 -416 -646 -17 -23 -40 -54 -51 -70 -26 -36 -186 -235 -205
-255 -8 -8 -38 -40 -66 -70 -324 -346 -659 -487 -816 -345 -70 62 -106 158
-134 354 -10 76 -4 388 11 542 9 85 45 335 61 415 8 44 17 92 19 106 3 14 47
197 100 406 52 209 95 392 95 408 0 35 -32 88 -62 102 -84 41 -276 41 -441 0
-54 -13 -100 -26 -102 -29 -2 -2 3 -24 11 -48 30 -85 -3 -255 -92 -481 -50
-128 -182 -398 -253 -517 -17 -29 -31 -54 -31 -56 0 -12 -260 -427 -346 -554
-330 -485 -616 -764 -856 -835 -55 -17 -153 -21 -197 -8 -95 28 -159 118 -182
256 -11 65 -7 302 6 365 5 26 20 113 30 185 4 22 13 65 20 95 7 30 16 69 19
85 6 35 7 42 36 160 12 50 24 98 26 108 2 10 6 27 9 37 3 10 8 27 10 38 2 10
22 84 45 163 37 125 119 435 136 509 51 232 34 307 -81 356 -33 14 -76 18
-250 18 -115 1 -220 0 -232 -2 l-22 -4 19 -37 c29 -59 37 -114 26 -195 -6 -48
-54 -268 -59 -271 -20 -16 -235 -86 -305 -100 -232 -44 -548 -1 -802 111 -205
90 -305 157 -371 247 -84 114 -271 293 -384 369 -187 125 -386 202 -580 224
-27 3 -56 7 -62 9 -7 2 -24 -11 -38 -29z m195 -681 c14 -3 37 -7 52 -10 15 -3
65 -31 110 -62 84 -56 215 -122 289 -144 38 -12 56 -30 64 -67 40 -170 47
-227 48 -367 2 -213 -8 -310 -53 -502 -73 -306 -224 -580 -434 -788 -116 -113
-222 -183 -351 -226 -98 -34 -126 -39 -240 -44 -200 -8 -373 52 -511 178 -150
138 -244 325 -272 542 -9 67 -8 246 1 320 30 251 120 474 276 685 71 96 238
263 319 317 133 91 300 156 441 173 66 7 214 5 261 -5z"/>
</g>
</svg>
